<svg id="Icon_Set" enable-background="new 0 0 256 256" height="512" viewBox="0 0 256 256" width="512" xmlns="http://www.w3.org/2000/svg"><path d="m153.14 44.104-20.725-35.896c-1.924-3.333-6.736-3.333-8.66 0l-20.725 35.896c-16.414 28.429-25.055 60.678-25.055 93.506v48.801c0 4.792 3.885 8.676 8.676 8.676l35.306-15.799c3.898-1.744 8.355-1.744 12.254 0l35.306 15.799c4.792 0 8.676-3.885 8.676-8.676v-48.801c.002-32.828-8.639-65.077-25.053-93.506z" fill="#5fcdff"/><path d="m118.371 200.093v8.228c0 4.274 1.675 8.472 4.857 12.173l3.692 4.294c.613.713 1.717.713 2.33 0l3.692-4.294c3.182-3.701 4.857-7.899 4.857-12.173v-8.228z" fill="#ff4a73"/><path d="m101.416 106.079c-6.481 6.481-6.481 16.988 0 23.469.374.374 24.646 24.646 24.272 24.272 1.324 1.324 3.471 1.324 4.795 0 .584-.584 24.832-24.832 24.272-24.272 6.481-6.481 6.481-16.988 0-23.469-6.481-6.481-16.988-6.481-23.469 0l-3.2 3.2-3.2-3.2c-6.482-6.481-16.989-6.481-23.47 0z" fill="#ff4a73"/><path d="m82.875 95.066c-3.24 13.89-4.9 28.16-4.9 42.54v22.54l-27.768 8.924c-4.355 1.399-8.147-3.299-5.86-7.26l17.578-30.443z" fill="#5fcdff"/><path d="m178.195 158.506v-20.9c0-14.56-1.7-29.01-5.03-43.07l21.26 36.83 17.222 29.827c2.331 4.036-1.642 8.785-6.026 7.204z" fill="#5fcdff"/><path d="m178.195 137.606v48.8c0 4.8-3.88 8.68-8.68 8.68l-7.98-3.57c1.05-1.44 1.66-3.2 1.66-5.11v-48.8c0-32.82-8.64-65.07-25.06-93.5l-17.55-30.41 3.17-5.49c1.92-3.33 6.74-3.33 8.66 0l20.72 35.9c16.42 28.43 25.06 60.68 25.06 93.5z" fill="#30b6ff"/><path d="m135.585 13.696-17.55 30.41c-8.21 14.21-14.47 29.39-18.69 45.1-4.21 15.72-6.37 31.99-6.37 48.4v48.8c0 1.91.61 3.67 1.66 5.11l-7.98 3.57c-4.8 0-8.68-3.88-8.68-8.68v-48.8c0-16.41 2.16-32.68 6.37-48.4 4.22-15.71 10.48-30.89 18.69-45.1l20.72-35.9c1.92-3.33 6.74-3.33 8.66 0z" fill="#73d7f9"/><path d="m193.195 144.606v19.31l-15-5.41v-20.9c0-14.56-1.7-29.01-5.03-43.07l19.28 33.39c.5 5.53.75 11.1.75 16.68z" fill="#73d7f9"/><path d="m82.875 95.066c-3.24 13.89-4.9 28.16-4.9 42.54v22.54l-15 4.82v-21.36c0-5.06.2-10.1.61-15.12z" fill="#73d7f9"/><path d="m154.755 129.546c-2.899 2.899-3.255 3.255-24.27 24.27-1.33 1.33-3.47 1.33-4.8 0l-5.1-5.1 15.97-15.97 3.2-3.2c6.48-6.48 6.48-16.99 0-23.47-1.27-1.27-2.7-2.3-4.23-3.07 2.35-1.19 4.92-1.79 7.5-1.79 4.24 0 8.49 1.62 11.73 4.86 6.48 6.48 6.48 16.99 0 23.47z" fill="#ea2a6a"/><path d="m135.585 148.716-5.1 5.1c-1.33 1.33-3.47 1.33-4.8 0-21.14-21.14-21.049-21.049-24.27-24.27-6.48-6.48-6.48-16.99 0-23.47 5.21-5.21 13.02-6.23 19.24-3.07-1.53.77-2.96 1.79-4.24 3.07-6.48 6.48-6.48 16.99 0 23.47l3.2 3.2z" fill="#f973a3"/><path d="m132.585 220.916-3.33 3.87c-.62.72-1.72.72-2.34 0l-3.69-4.29c-3.18-3.7-4.85-7.9-4.85-12.17v-8.23h9v8.23c0 4.27 1.67 8.47 4.85 12.17z" fill="#f973a3"/><path d="m162.515 62.656c-3.35 3.42-7.22 6.35-11.47 8.66-6.83 3.71-14.65 5.81-22.96 5.81s-16.13-2.1-22.96-5.81c-4.25-2.31-8.12-5.24-11.47-8.66 2.556-5.797 5.2-11.158 8.44-16.89 3.69 2.37 7.71 4.25 12 5.54 4.43 1.35 9.12 2.07 13.99 2.07s9.56-.72 13.99-2.07c4.29-1.29 8.31-3.17 12-5.54 3.416 6.042 6.003 11.36 8.44 16.89z" fill="#ff4a73"/><path d="m162.515 62.656c-3.35 3.42-7.22 6.35-11.47 8.66-2.59-6.82-5.58-13.51-8.97-20.01 4.29-1.29 8.31-3.17 12-5.54 3.416 6.042 6.003 11.36 8.44 16.89z" fill="#ea2a6a"/><path d="m114.095 51.306c-3.39 6.5-6.38 13.19-8.97 20.01-4.25-2.31-8.12-5.24-11.47-8.66 2.556-5.797 5.2-11.158 8.44-16.89 3.69 2.37 7.71 4.25 12 5.54z" fill="#f973a3"/><g fill="#5f266d"><path d="m124.085 240.296v10.028c0 5.285 8 5.292 8 0v-10.028c0-5.285-8-5.293-8 0z"/><path d="m137.795 196.096h-19.42c-2.21 0-4 1.79-4 4v8.23c0 9.026 5.332 14.213 9.51 19.07 2.197 2.573 6.204 2.573 8.4 0 4.123-4.793 9.51-10.009 9.51-19.07v-8.23c0-2.21-1.79-4-4-4zm-4 12.23c0 3.29-1.34 6.6-3.89 9.56l-1.82 2.12-1.82-2.12c-2.55-2.96-3.89-6.27-3.89-9.56v-4.23h11.42z"/><path d="m154.085 225.324v25c0 5.285 8 5.292 8 0v-25c0-5.285-8-5.292-8 0z"/><path d="m94.085 225.324v25c0 5.285 8 5.292 8 0v-25c0-5.285-8-5.292-8 0z"/><path d="m128.085 103.626c-19.345-19.869-48.817 9.433-29.5 28.75l24.27 24.27c2.893 2.893 7.563 2.897 10.46 0l24.27-24.27c19.287-19.287-10.041-48.736-29.5-28.75zm23.84 23.09-23.84 23.84-23.84-23.84c-11.767-11.767 6.04-29.58 17.81-17.81l3.2 3.2c1.56 1.56 4.102 1.558 5.66 0l3.2-3.2c11.767-11.767 29.581 6.039 17.81 17.81z"/><path d="m215.115 159.196-38.22-66.19c-9.32-38.886-41.701-88-41.13-87-3.242-5.677-12.049-5.845-15.47.2-21.538 37.307-33.399 54.583-41.15 87.33l-38.26 66.27c-4.14 7.157 2.782 15.603 10.55 13.07l22.54-7.24v20.77c0 6.99 5.69 12.68 12.68 12.68 1.211 0-1.386.999 36.94-16.15 2.85-1.27 6.13-1.27 8.98 0 38.292 17.135 35.729 16.15 36.94 16.15 6.99 0 12.68-5.69 12.68-12.68v-22.21l22.07 7.96c7.852 2.848 15.052-5.679 10.85-12.96zm-141.14-1.97-24.99 8.04c-.91.269-1.633-.655-1.17-1.46l27.34-47.36c-1.435 12.765-1.18 19.785-1.18 40.78zm53.25-147.02c.03-.05.06-.1.09-.14.393-.495 1.258-.513 1.64.14l19.68 34.11c-12.819 6.745-28.266 6.753-41.1 0zm-28.73 51.43c1.457-3.183 3.448-7.244 5.13-10.35 15.07 8.037 33.543 8.206 48.93 0 .741 1.428 2.715 5.083 5.16 10.44-16.774 15.206-42.471 15.22-59.26 0 .01-.03.03-.06.04-.09zm75.7 124.77c0 2.34-1.71 4.27-3.95 4.62l-34.4-15.39c-4.901-2.182-10.539-2.218-15.52 0l-34.4 15.39c-2.24-.35-3.95-2.28-3.95-4.62 0-22.287 0-26.958 0-48.8 0-11.684 1.365-27.025 4.56-40.54 2.14-9.42 5.02-18.66 8.63-27.63 19.083 15.587 46.723 15.615 65.84 0 3.85 9.57 6.88 19.45 9.05 29.52 2.846 13.145 4.14 26.168 4.14 38.65zm32.78-21.77-24.78-8.94c0-19.365.259-26.394-1.22-39.63l27.21 47.13c.474.823-.315 1.745-1.21 1.44z"/><path d="m88.975 140.816v18c0 5.285 8 5.293 8 0v-18c0-5.286-8-5.293-8 0z"/><path d="m88.975 173.816v4.33c0 5.285 8 5.293 8 0v-4.33c0-5.286-8-5.293-8 0z"/></g></svg>