<svg id="Layer_1" enable-background="new 0 0 256 256" height="512" viewBox="0 0 256 256" width="512" xmlns="http://www.w3.org/2000/svg"><g><path d="m32.035 202.529c-7.535 0-13.665-6.13-13.665-13.665v-123.776c0-7.535 6.13-13.665 13.665-13.665h191.931c7.535 0 13.665 6.13 13.665 13.665v123.776c0 7.535-6.13 13.665-13.665 13.665z" fill="#63bce7"/><path d="m229.221 176.864c0 2.891-2.365 5.256-5.256 5.256h-191.93c-2.891 0-5.256-2.365-5.256-5.256v-111.777c0-2.891 2.365-5.256 5.256-5.256h191.931c2.891 0 5.256 2.365 5.256 5.256v111.777z" fill="#f46275"/><g><path d="m44.838 176.864v-111.777c0-2.891 2.365-5.256 5.256-5.256h-18.059c-2.891 0-5.256 2.365-5.256 5.256v111.777c0 2.891 2.365 5.256 5.256 5.256h18.059c-2.891 0-5.256-2.365-5.256-5.256z" fill="#f43075"/></g><g><path d="m211.162 176.864v-111.777c0-2.891-2.365-5.256-5.256-5.256h18.059c2.891 0 5.256 2.365 5.256 5.256v111.777c0 2.891-2.365 5.256-5.256 5.256h-18.059c2.891 0 5.256-2.365 5.256-5.256z" fill="#f48875"/></g><path d="m96.752 202.529h62.496v19.017h-62.496z" fill="#f8af23"/><g><path d="m96.752 202.529h18.059v19.017h-18.059z" fill="#f87023"/></g><g><path d="m141.19 202.529h18.059v19.017h-18.059z" fill="#f8d323"/></g><circle cx="128" cy="192.324" fill="#f8af23" r="4.5"/><path d="m178.687 236.997h-101.375v-10.45c0-2.761 2.239-5 5-5h91.375c2.761 0 5 2.239 5 5z" fill="#9e9e9e"/><g><path d="m100.371 221.546h-18.059c-2.761 0-5 2.239-5 5v10.45h18.059v-10.45c0-2.761 2.239-5 5-5z" fill="#707070"/></g><g><path d="m155.629 221.546h18.059c2.761 0 5 2.239 5 5v10.45h-18.059v-10.45c0-2.761-2.239-5-5-5z" fill="#cecece"/></g><g><path d="m182.024 61.481c0-30.658-25.538-55.352-56.502-53.968-27.529 1.23-49.961 23.435-51.463 50.95-.577 10.575 1.877 20.501 6.59 29.045l33.726 67.188c5.626 11.208 21.624 11.208 27.25 0l33.714-67.167c4.262-7.726 6.685-16.6 6.685-26.048z" fill="#f8af23"/><circle cx="127.73" cy="61.202" fill="#63bce7" r="35.92"/></g><path d="m133.311 36.788c-.197-.224-.569-.045-.512.247.227 1.15.067 2.767-2.112 3.736-2.231.991-2.841 2.872-2.977 4.189-.031.303-.433.368-.561.092-3.288-7.067-9.175-10.154-11.31-11.078-.256-.111-.508.166-.374.41 5.512 10.094-3.933 23.538-3.933 23.538v.001c-2.398 3.534-3.671 7.895-3.301 12.566.758 9.559 8.534 17.252 18.1 17.917 11.435.794 20.959-8.247 20.959-19.513.002-13.916-10.425-28.069-13.979-32.105z" fill="#f46275"/><circle cx="65.5" cy="131.142" fill="#f8af23" r="10.167"/><circle cx="192.191" cy="110.809" fill="#9e9e9e" r="10.167"/><circle cx="86.813" cy="156.327" fill="#63bce7" r="6.775"/><g><circle cx="173.934" cy="140.077" fill="#f8af23" r="6.775"/><g fill="#3f3679"><path d="m32.034 204.029h63.218v16.017h-12.94c-3.584 0-6.5 2.916-6.5 6.5v8.951h-48.112c-.828 0-1.5.672-1.5 1.5s.672 1.5 1.5 1.5h49.612 101.375 49.613c.828 0 1.5-.672 1.5-1.5s-.672-1.5-1.5-1.5h-48.112v-8.951c0-3.584-2.916-6.5-6.5-6.5h-12.939v-16.017h63.218c8.361 0 15.164-6.803 15.164-15.165v-123.776c0-8.362-6.803-15.165-15.164-15.165h-41.641c-2.273-10.833-7.74-20.718-15.956-28.574-11.055-10.572-25.562-16.024-40.914-15.334-25.245 1.128-46.536 19.777-51.746 43.908h-41.676c-8.361 0-15.164 6.803-15.164 15.165v123.776c0 8.363 6.803 15.165 15.164 15.165zm145.154 22.517v8.951h-98.376v-8.951c0-1.93 1.57-3.5 3.5-3.5h14.439 62.496 14.439c1.931 0 3.502 1.57 3.502 3.5zm-19.44-6.5h-59.496v-16.017h59.496zm-78.439-131.865 33.726 67.188c2.859 5.695 8.594 9.233 14.966 9.233s12.106-3.538 14.966-9.233l33.688-67.115c4.494-8.148 6.87-17.406 6.87-26.772 0-.05-.004-.099-.004-.149h40.446c2.07 0 3.755 1.685 3.755 3.756v111.776c0 2.071-1.685 3.756-3.755 3.756h-191.933c-2.07 0-3.755-1.685-3.755-3.756v-111.777c0-2.071 1.685-3.756 3.755-3.756h40.452c-.022 9.443 2.316 18.682 6.823 26.849zm46.281-79.17c.813-.036 1.623-.054 2.433-.054 13.6 0 26.402 5.119 36.273 14.56 10.465 10.008 16.228 23.49 16.228 37.965 0 8.86-2.247 17.617-6.524 25.375l-33.715 67.167c-2.382 4.746-6.975 7.579-12.284 7.579s-9.902-2.833-12.284-7.579l-33.753-67.24c-4.73-8.574-6.946-18.339-6.405-28.238 1.449-26.588 23.425-48.346 50.031-49.535zm-105.72 56.077c0-6.708 5.457-12.165 12.164-12.165h41.11c-.28 1.779-.477 3.583-.578 5.409h-40.532c-3.725 0-6.755 3.03-6.755 6.756v111.776c0 3.726 3.03 6.756 6.755 6.756h191.932c3.725 0 6.755-3.03 6.755-6.756v-111.776c0-3.726-3.03-6.756-6.755-6.756h-40.536c-.1-1.822-.283-3.627-.556-5.409h41.092c6.707 0 12.164 5.457 12.164 12.165v123.776c0 6.708-5.457 12.165-12.164 12.165h-64.718-62.496-64.718c-6.707 0-12.164-5.457-12.164-12.165z"/><path d="m128 198.324c3.309 0 6-2.691 6-6s-2.691-6-6-6-6 2.691-6 6 2.691 6 6 6zm0-9c1.654 0 3 1.346 3 3s-1.346 3-3 3-3-1.346-3-3 1.346-3 3-3z"/><path d="m27.7 247.042h-18.172c-.828 0-1.5.672-1.5 1.5s.672 1.5 1.5 1.5h18.172c.828 0 1.5-.672 1.5-1.5s-.672-1.5-1.5-1.5z"/><path d="m246.472 247.042h-18.172c-.828 0-1.5.672-1.5 1.5s.672 1.5 1.5 1.5h18.172c.828 0 1.5-.672 1.5-1.5s-.672-1.5-1.5-1.5z"/><path d="m213.788 247.042h-171.576c-.828 0-1.5.672-1.5 1.5s.672 1.5 1.5 1.5h171.576c.828 0 1.5-.672 1.5-1.5s-.672-1.5-1.5-1.5z"/><path d="m9.528 238.497h7.803c.828 0 1.5-.672 1.5-1.5s-.672-1.5-1.5-1.5h-7.803c-.828 0-1.5.672-1.5 1.5s.672 1.5 1.5 1.5z"/><path d="m237.169 236.997c0 .828.672 1.5 1.5 1.5h7.803c.828 0 1.5-.672 1.5-1.5s-.672-1.5-1.5-1.5h-7.803c-.828 0-1.5.672-1.5 1.5z"/><path d="m127.73 98.622c20.634 0 37.42-16.786 37.42-37.42s-16.786-37.421-37.42-37.421-37.42 16.787-37.42 37.421 16.787 37.42 37.42 37.42zm0-71.841c18.979 0 34.42 15.441 34.42 34.421s-15.44 34.42-34.42 34.42-34.42-15.44-34.42-34.42 15.441-34.421 34.42-34.421z"/><path d="m126.229 89.902c.509.036 1.016.053 1.521.053 5.354 0 10.401-1.979 14.346-5.659 4.256-3.971 6.696-9.585 6.696-15.402 0-16.603-13.769-32.431-14.354-33.097l-.001-.001c-.535-.606-1.418-.779-2.144-.421-.724.357-1.121 1.159-.965 1.95.193.979-.181 1.6-1.25 2.075-1.265.562-2.253 1.423-2.918 2.516-3.535-5.71-8.546-8.376-10.727-9.319-.7-.302-1.519-.127-2.035.438s-.616 1.396-.249 2.068c4.971 9.1-3.758 21.834-3.846 21.962-.004.005-.008.011-.012.016-2.71 3.994-3.939 8.672-3.555 13.527.818 10.284 9.197 18.579 19.493 19.294zm-13.468-31.117c.368-.523 8.152-11.783 5.325-21.905 2.479 1.598 5.632 4.352 7.704 8.806.348.744 1.122 1.156 1.928 1.017.804-.136 1.401-.773 1.485-1.588.146-1.42.851-2.42 2.093-2.973 1.22-.542 2.099-1.329 2.599-2.291 4.868 6.24 11.897 18.033 11.897 29.043 0 4.989-2.094 9.804-5.743 13.209-3.701 3.453-8.549 5.16-13.611 4.808-8.826-.614-16.01-7.725-16.71-16.539-.331-4.169.723-8.183 3.033-11.587z"/><path d="m53.833 131.143c0 6.433 5.233 11.666 11.667 11.666s11.667-5.233 11.667-11.666c0-6.434-5.233-11.667-11.667-11.667s-11.667 5.233-11.667 11.667zm20.334 0c0 4.778-3.888 8.666-8.667 8.666s-8.667-3.888-8.667-8.666c0-4.779 3.888-8.667 8.667-8.667s8.667 3.887 8.667 8.667z"/><path d="m192.19 122.476c6.434 0 11.667-5.233 11.667-11.667 0-6.433-5.233-11.666-11.667-11.666s-11.667 5.233-11.667 11.666 5.234 11.667 11.667 11.667zm0-20.333c4.779 0 8.667 3.888 8.667 8.666 0 4.779-3.888 8.667-8.667 8.667s-8.667-3.888-8.667-8.667 3.888-8.666 8.667-8.666z"/><path d="m86.813 164.603c4.563 0 8.275-3.712 8.275-8.275s-3.712-8.275-8.275-8.275-8.275 3.712-8.275 8.275 3.712 8.275 8.275 8.275zm0-13.551c2.909 0 5.275 2.366 5.275 5.275s-2.366 5.275-5.275 5.275-5.275-2.366-5.275-5.275 2.366-5.275 5.275-5.275z"/><path d="m173.934 148.353c4.563 0 8.275-3.712 8.275-8.275s-3.712-8.275-8.275-8.275-8.275 3.712-8.275 8.275 3.711 8.275 8.275 8.275zm0-13.551c2.909 0 5.275 2.366 5.275 5.275s-2.366 5.275-5.275 5.275-5.275-2.366-5.275-5.275 2.365-5.275 5.275-5.275z"/></g></g></g></svg>