<svg id="Layer_1" height="512" viewBox="0 0 150 150" width="512" xmlns="http://www.w3.org/2000/svg" data-name="Layer 1"><circle cx="75" cy="75" fill="#21b3a9" r="64"/><path d="m65.8 87.36-13.53-4.26a3 3 0 0 1 -2-3.81l1.88-5.94 2.12.67-1.86 5.98a.8.8 0 0 0 .53 1l13.53 4.26a.8.8 0 0 0 1-.52l1.87-5.94 2.13.67-1.87 5.94a3 3 0 0 1 -3.8 1.95z" fill="#3a556a"/><path d="m38.19 59.44a5 5 0 0 0 -3.11 2.56 6.9 6.9 0 0 0 -.08 6.28 4.93 4.93 0 0 0 3.07 2.5l56 16.72v-44.75z" fill="#3a556a"/><path d="m94.12 42.75c-3.51 0-6.34 10-6.34 22.38s2.83 22.37 6.34 22.37 6.34-10 6.34-22.37-2.84-22.38-6.34-22.38z" fill="#e1e6e9"/><path d="m98.23 65.13c0 11.81-2.62 19.2-4.12 20.1-1.3-.78-3.45-6.48-4-15.72-.08-1.38-.13-2.84-.13-4.38s0-3 .13-4.38c.53-9.24 2.68-14.94 4-15.73 1.5.91 4.12 8.3 4.12 20.11z" fill="#3a556a"/><path d="m65.4 83a1.82 1.82 0 0 0 -2.31 1 1.83 1.83 0 0 0 -3.45-1.25 1.83 1.83 0 0 0 -3.24-1.75 1.84 1.84 0 0 0 -3.54-.89l-2.72 7.31 3.44 1.28 3.36 1.3 3.43 1.28-10.2-3.88-1-4 .83-1.49a2.88 2.88 0 0 0 -1.49-4.14l-3.89 3.86 3.5 14.24 9.27 3.65 3.39-1.81 3-5.06 2.71-7.31a1.83 1.83 0 0 0 -1.09-2.34z" fill="#fcd462"/><path d="m47.1 94.52 11.83 5-3.3 7.95-12.16-5.45z" fill="#e56353"/><path d="m93.16 61.75-3-1c-.08 1.38-.13 2.84-.13 4.38s0 3 .13 4.38l3-1a1.37 1.37 0 0 0 1-1.31v-4.13a1.37 1.37 0 0 0 -1-1.32z" fill="#64798a"/><g fill="#ebf0f3"><path d="m104.87 64.38h10.83v1.75h-10.83z"/><path d="m104.48 54.45h10.83v1.75h-10.83z" transform="matrix(.957 -.289 .289 .957 -11.3 34.13)"/><path d="m102.1 45.76h10.83v1.75h-10.83z" transform="matrix(.773 -.634 .634 .773 -5.19 78.74)"/><path d="m109.02 68.54h1.75v10.83h-1.75z" transform="matrix(.289 -.957 .957 .289 7.33 157.78)"/><path d="m106.64 77.23h1.75v10.83h-1.75z" transform="matrix(.634 -.773 .773 .634 -24.57 113.39)"/></g></svg>