<svg id="Layer_1" enable-background="new 0 0 256 256" height="512" viewBox="0 0 256 256" width="512" xmlns="http://www.w3.org/2000/svg"><g><path d="m167.081 53.857-33.504-33.504h-115.658v204.321h149.162z" fill="#cecece"/><g><path d="m133.577 20.353h-6.5l33.504 33.504v170.817h6.5v-170.817z" fill="#e2e2e2"/></g><g><path d="m17.919 20.353h6.5v204.321h-6.5z" fill="#afafaf"/></g><g fill="#f8af23"><g><path d="m37.66 122.514h16.126v16.126h-16.126z"/><path d="m68.172 122.514h79.168v16.126h-79.168z"/></g><g><path d="m37.66 155.631h16.126v16.126h-16.126z"/><path d="m68.172 155.631h79.168v16.126h-79.168z"/></g><g><path d="m37.66 188.749h16.126v16.126h-16.126z"/><path d="m68.172 188.749h79.168v16.126h-79.168z"/></g></g><g><circle cx="92.5" cy="59.592" fill="#9e9e9e" r="12.722"/><path d="m109.388 100.585h-33.776v-15.944c0-6.808 5.519-12.327 12.327-12.327h9.122c6.808 0 12.327 5.519 12.327 12.327z" fill="#63bce7"/></g><circle cx="172.919" cy="159.512" fill="#f46275" r="65.162"/><g><path d="m172.919 94.349c-1.09 0-2.173.029-3.25.082 34.478 1.694 61.912 30.182 61.912 65.08s-27.434 63.386-61.912 65.08c1.077.053 2.16.082 3.25.082 35.988 0 65.162-29.174 65.162-65.162s-29.174-65.162-65.162-65.162z" fill="#f48875"/></g><path d="m195.668 197.76h-45.499l-10.419-76.496h66.337z" fill="#cecece"/><g fill="#3f3679"><path d="m27.323 234.147h-18.003c-.829 0-1.5.671-1.5 1.5s.671 1.5 1.5 1.5h18.003c.829 0 1.5-.671 1.5-1.5s-.671-1.5-1.5-1.5z"/><path d="m246.68 234.147h-18.003c-.829 0-1.5.671-1.5 1.5s.671 1.5 1.5 1.5h18.003c.829 0 1.5-.671 1.5-1.5s-.671-1.5-1.5-1.5z"/><path d="m218.479 234.147h-180.958c-.829 0-1.5.671-1.5 1.5s.671 1.5 1.5 1.5h180.959c.829 0 1.5-.671 1.5-1.5s-.672-1.5-1.501-1.5z"/><path d="m9.32 226.174h8.599 149.162 79.599c.829 0 1.5-.671 1.5-1.5s-.671-1.5-1.5-1.5h-53.967c27.123-8.451 46.868-33.794 46.868-63.663 0-36.758-29.905-66.663-66.663-66.663-1.459 0-2.902.064-4.337.156v-39.147c0-.398-.158-.779-.439-1.061l-33.504-33.504c-.281-.281-.663-.439-1.061-.439h-115.658c-.829 0-1.5.671-1.5 1.5v202.821h-7.099c-.829 0-1.5.671-1.5 1.5s.671 1.5 1.5 1.5zm227.261-66.662c0 35.104-28.559 63.663-63.663 63.663s-63.662-28.559-63.662-63.663 28.559-63.663 63.662-63.663 63.663 28.559 63.663 63.663zm-113.797 43.863h-53.112v-13.126h44.123c2.473 4.737 5.497 9.139 8.989 13.126zm-15.65-33.118h-37.462v-13.125h36.644c-.028.792-.06 1.582-.06 2.38 0 3.658.309 7.245.878 10.745zm2.996-33.118h-40.458v-13.125h46.863c-2.589 4.098-4.749 8.491-6.405 13.125zm24.947-113.165 28.383 28.383h-28.383zm-115.658-2.121h112.658v32.004c0 .829.671 1.5 1.5 1.5h32.004v37.905c-19.384 2.133-36.281 12.611-47.033 27.752h-50.376c-.829 0-1.5.671-1.5 1.5v16.125c0 .829.671 1.5 1.5 1.5h40.964c-1.364 4.483-2.256 9.167-2.644 13.992h-38.32c-.829 0-1.5.671-1.5 1.5v16.125c0 .829.671 1.5 1.5 1.5h39.516c1.028 4.883 2.601 9.564 4.636 13.992h-44.152c-.829 0-1.5.671-1.5 1.5v16.126c0 .829.671 1.5 1.5 1.5h57.39c7.589 7.668 17.015 13.513 27.561 16.799h-133.704z"/><path d="m53.786 121.014h-16.126c-.829 0-1.5.671-1.5 1.5v16.125c0 .829.671 1.5 1.5 1.5h16.126c.829 0 1.5-.671 1.5-1.5v-16.125c0-.829-.672-1.5-1.5-1.5zm-1.5 16.125h-13.126v-13.125h13.126z"/><path d="m53.786 154.131h-16.126c-.829 0-1.5.671-1.5 1.5v16.125c0 .829.671 1.5 1.5 1.5h16.126c.829 0 1.5-.671 1.5-1.5v-16.125c0-.828-.672-1.5-1.5-1.5zm-1.5 16.126h-13.126v-13.125h13.126z"/><path d="m53.786 187.249h-16.126c-.829 0-1.5.671-1.5 1.5v16.126c0 .829.671 1.5 1.5 1.5h16.126c.829 0 1.5-.671 1.5-1.5v-16.126c0-.829-.672-1.5-1.5-1.5zm-1.5 16.126h-13.126v-13.126h13.126z"/><path d="m75.612 102.085h33.775c.829 0 1.5-.671 1.5-1.5v-15.944c0-6.407-4.387-11.795-10.311-13.356 3.708-2.569 6.145-6.849 6.145-11.692 0-7.842-6.38-14.222-14.222-14.222s-14.222 6.38-14.222 14.222c0 4.843 2.437 9.123 6.145 11.692-5.924 1.561-10.311 6.949-10.311 13.356v15.944c.001.829.673 1.5 1.501 1.5zm5.666-42.493c0-6.188 5.034-11.222 11.222-11.222 6.187 0 11.222 5.034 11.222 11.222s-5.034 11.222-11.222 11.222-11.222-5.034-11.222-11.222zm-4.166 25.049c0-5.97 4.857-10.827 10.827-10.827h9.122c5.97 0 10.827 4.857 10.827 10.827v14.444h-30.776z"/><path d="m131.111 122.764h7.33l10.243 75.199c.101.743.736 1.297 1.486 1.297h45.499c.75 0 1.385-.554 1.486-1.297l10.243-75.199h7.33c.829 0 1.5-.671 1.5-1.5s-.671-1.5-1.5-1.5h-8.639-22.933v-3.619c0-3.665-2.981-6.646-6.646-6.646h-7.18c-3.665 0-6.646 2.981-6.646 6.646v3.619h-22.934-8.639c-.829 0-1.5.671-1.5 1.5s.671 1.5 1.5 1.5zm34.571-6.619c0-2.011 1.636-3.646 3.646-3.646h7.18c2.01 0 3.646 1.636 3.646 3.646v3.619h-14.473v-3.619zm-1.5 6.619h17.473 22.714l-10.011 73.496h-42.879l-10.011-73.496z"/><path d="m158.099 182.809c.829 0 1.5-.671 1.5-1.5v-43.595c0-.829-.671-1.5-1.5-1.5s-1.5.671-1.5 1.5v43.595c0 .829.671 1.5 1.5 1.5z"/><path d="m172.918 182.809c.829 0 1.5-.671 1.5-1.5v-43.595c0-.829-.671-1.5-1.5-1.5s-1.5.671-1.5 1.5v43.595c0 .829.672 1.5 1.5 1.5z"/><path d="m187.739 182.809c.829 0 1.5-.671 1.5-1.5v-43.595c0-.829-.671-1.5-1.5-1.5s-1.5.671-1.5 1.5v43.595c0 .829.671 1.5 1.5 1.5z"/></g></g></svg>