<svg height="512" viewBox="0 0 60 60" width="512" xmlns="http://www.w3.org/2000/svg"><g id="Page-1" fill="none" fill-rule="evenodd"><g id="005---Collar" fill-rule="nonzero"><path id="Shape" d="m22.03 34.67c-7.05-.58-13.37-2.03-17.98-4.57-1.88571472-1.0457196-3.05401512-3.0337455-3.05-5.19l-.00001032-11.91c2.23507237 1.7579499 4.76425253 3.1054916 7.47001032 3.98 4.3169097 1.424958 8.7949084 2.3051048 13.33 2.62-.5192885.6923847-.8 1.5345191-.8 2.4v10c.0007996.9868504.3678321 1.9382842 1.03 2.67z" fill="#9d27b0"/><path id="Shape" d="m59.0000103 13-.0000103 11.91c.0040151 2.1562545-1.1642853 4.1442804-3.05 5.19-4.61 2.54-10.93 3.99-17.98 4.57.6621679-.7317158 1.0292004-1.6831496 1.03-2.67v-10c0-.8654809-.2807115-1.7076153-.8-2.4 4.5350916-.3148952 9.0130903-1.195042 13.33-2.62 2.7057578-.8745084 5.234938-2.2220501 7.4700103-3.98z" fill="#9d27b0"/><path id="Shape" d="m56 15v9.91c.0040151 2.1562545-1.1642853 4.1442804-3.05 5.19-3.885 2.14-8.992 3.5-14.719 4.223-.0809473.1200977-.1680641.2359197-.261.347 7.05-.58 13.37-2.03 17.98-4.57 1.8857147-1.0457196 3.0540151-3.0337455 3.05-5.19l.0000103-11.91c-.9369016.7567925-1.9410898 1.4262513-3.0000103 2z" fill="#6a1b9a"/><path id="Shape" d="m59 13c-2.235062 1.7579499-4.7642422 3.1054916-7.47 3.98-5.93-2.08-13.49-2.98-21.53-2.98s-15.6.9-21.53 2.98c-2.70575779-.8745084-5.23493795-2.2220501-7.47-3.98-.01592367-4.07668687 2.45705198-7.75048242 6.24-9.27 6.09-2.42 14.17-2.73 22.76-2.73s16.67.31 22.76 2.73c3.782948 1.51951758 6.2559237 5.19331313 6.24 9.27z" fill="#673ab7"/><path id="Shape" d="m52.76 3.73c-6.09-2.42-14.17-2.73-22.76-2.73-.5 0-1 .006-1.5.008 8.025.041 15.527.444 21.26 2.722 3.782948 1.51951758 6.2559237 5.19331313 6.24 9.27-1.8485079 1.4625102-3.9127227 2.6293869-6.119 3.459.557.168 1.117.334 1.649.521 2.7057578-.8745084 5.234938-2.2220501 7.47-3.98.0159237-4.07668687-2.457052-7.75048242-6.24-9.27z" fill="#4527a0"/><path id="Shape" d="m51.291 8.448c-.126059-.00011768-.2509452-.02421256-.368-.071-5.535-2.193-13.702-2.377-20.923-2.377s-15.388.184-20.922 2.377c-.51334867.20379307-1.09470693-.04715133-1.2985-.5605s.04715133-1.09470693.5605-1.2985c5.86-2.318 14.26-2.518 21.66-2.518s15.8.2 21.659 2.518c.4466111.17651188.7046898.64557095.6147436 1.1172993-.0899461.47172836-.5025167.81291235-.9827436.8127007z" fill="#4527a0"/><path id="Shape" d="m39 22v10c-.0007996.9868504-.3678321 1.9382842-1.03 2.67-.7524361.8501312-1.8347203 1.3347904-2.97 1.33h-10c-1.1352797.0047904-2.2175639-.4798688-2.97-1.33-.6621679-.7317158-1.0292004-1.6831496-1.03-2.67v-10c0-.8654809.2807115-1.7076153.8-2.4h.01c.7494418-1.0090238 1.9331051-1.6027107 3.19-1.6h10c1.2568949-.0027107 2.4405582.5909762 3.19 1.6h.01c.5192885.6923847.8 1.5345191.8 2.4z" fill="#ffdc00"/><path id="Shape" d="m38.2 19.6h-.01c-.7494418-1.0090238-1.9331051-1.6027107-3.19-1.6l-3-.0000092c1.2568949-.0027015 2.4405582.5909854 3.19 1.6000092h.01c.5192885.6923847.8 1.5345191.8 2.4v10c-.0007996.9868504-.3678321 1.9382842-1.03 2.67-.7524361.8501312-1.8347203 1.3347904-2.97 1.3300352l3-.0000352c1.1352797.0047904 2.2175639-.4798688 2.97-1.33.6621679-.7317158 1.0292004-1.6831496 1.03-2.67v-10c0-.8654809-.2807115-1.7076153-.8-2.4z" fill="#fec108"/><rect id="Rectangle-path" fill="#9d27b0" height="10" rx="1" width="10" x="25" y="22"/><path id="Shape" d="m34 22h-3c.5522847 0 1 .4477153 1 1v8c0 .5522847-.4477153 1-1 1h3c.5522847 0 1-.4477153 1-1v-8c0-.5522847-.4477153-1-1-1z" fill="#6a1b9a"/><circle id="Oval" cx="30" cy="50" fill="#ffdc00" r="9"/><path id="Shape" d="m30 41c-.5028835.0032224-1.0046224.0483789-1.5.135 4.3297277.7267089 7.5010833 4.4747098 7.5010833 8.865s-3.1713556 8.1382911-7.5010833 8.865c3.3570875.5877651 6.7581917-.7711782 8.7859125-3.5104942 2.0277208-2.7393161 2.334161-6.389019.7916126-9.4281058-1.5425485-3.0390868-4.6694296-4.9461397-8.0775251-4.9264z" fill="#fec108"/><path id="Shape" d="m34 50h-8c-.5522847 0-1-.4477153-1-1s.4477153-1 1-1h8c.5522847 0 1 .4477153 1 1s-.4477153 1-1 1z" fill="#ff9801"/><path id="Shape" d="m32 54h-4c-.5522847 0-1-.4477153-1-1s.4477153-1 1-1h4c.5522847 0 1 .4477153 1 1s-.4477153 1-1 1z" fill="#ff9801"/><path id="Shape" d="m3.567 30.976c4.427 2.439 10.492 4 18.016 4.654.9216962.8771392 2.1446437 1.3674635 3.417 1.37h4v3.051c-5.3015493.5328257-9.2542081 5.1289259-8.9874607 10.4505021.2667473 5.3215763 4.6592032 9.4993723 9.9874607 9.4993723s9.7207134-4.177796 9.9874607-9.4993723c.2667474-5.3215762-3.6859114-9.9176764-8.9874607-10.4505021v-3.051h4c1.2723563-.0025365 2.4953038-.4928608 3.417-1.37 7.524-.653 13.589-2.215 18.016-4.654 2.2057116-1.2207595 3.5724448-3.5450105 3.567-6.066v-11.91c.0350616-4.49126367-2.6925343-8.54273866-6.867-10.2-6.518-2.584-15.358-2.8-23.133-2.8s-16.615.216-23.133 2.8c-4.17446566 1.65726134-6.90206162 5.70873633-6.867 10.2v11.91c-.00544479 2.5209895 1.36128838 4.8452405 3.567 6.066zm34.433 19.024c.0033528 4.2891249-3.376431 7.8177346-7.661721 7.9990985-4.28529.1813638-7.9511324-3.0490579-8.3101948-7.3231283-.3590623-4.2740704 2.7164305-8.0708281 6.9719158-8.6069702v1.931c0 .5522847.4477153 1 1 1s1-.4477153 1-1v-1.931c3.995865.507003 6.9933065 3.9031042 7 7.931zm-3-33h-10c-1.3651459.0020035-2.6695655.5645526-3.608 1.556-3.1812964-.2682944-6.3358237-.7923211-9.433-1.567 5.9080022-1.4080819 11.968144-2.0762058 18.041-1.989 6.073586-.0874691 12.1344629.5809977 18.043 1.99-3.0967207.7758539-6.25093 1.3008866-9.432 1.57-.9380485-.9942714-2.2440661-1.5584883-3.611-1.56zm0 18h-4v-2h3c1.1045695 0 2-.8954305 2-2v-8c0-1.1045695-.8954305-2-2-2h-8c-1.1045695 0-2 .8954305-2 2v8c0 1.1045695.8954305 2 2 2h3v2h-4c-1.6568542 0-3-1.3431458-3-3v-10c0-1.6568542 1.3431458-3 3-3h10c1.6568542 0 3 1.3431458 3 3v10c0 1.6568542-1.3431458 3-3 3zm-5-5c-.5522847 0-1 .4477153-1 1h-3v-8h8v8h-3c0-.5522847-.4477153-1-1-1zm28-5.09c.0053702 1.7920081-.9647995 3.444975-2.532 4.314-3.886 2.141-9.178 3.567-15.72 4.264.1598862-.4801232.2448822-.9820048.252-1.488v-1.194c5.3391908-.4181899 10.5650149-1.7615285 15.444-3.97.490734-.2474257.6898335-.844498.4458137-1.3369345-.2440198-.4924364-.8396985-.6956678-1.3338137-.4550655-4.6008646 2.0760104-9.5247606 3.3445327-14.556 3.75v-6.794c-.0070494-.5260175-.0978541-1.0475533-.269-1.545 4.1265055-.3697677 8.1959133-1.2188195 12.126-2.53 2.1625346-.7227877 4.2262086-1.7131362 6.1430222-2.948zm-50.4-20.251c6.194-2.453 14.81-2.659 22.4-2.659s16.206.206 22.4 2.659c3.2231725 1.32076875 5.3928468 4.38512194 5.568 7.864-1.9653423 1.4662629-4.1494626 2.6136685-6.472 3.4-5.64-1.908-13.049-2.923-21.496-2.923s-15.856 1.014-21.492 2.923c-2.32280127-.7857161-4.50701474-1.9331706-6.472-3.4.17445451-3.47792239 2.34239205-6.54202391 5.564-7.864zm-5.60002218 10.318c1.91497221 1.233829 3.97661506 2.2234982 6.13702218 2.946 3.932337 1.3126232 8.0046417 2.1610479 12.134 2.528-.1728484.4984513-.2643517 1.0214718-.271 1.549v6.792c-5.0204965-.4132692-9.9334972-1.6811731-14.527-3.749-.32062884-.1609277-.70289494-.1377735-1.00175589.0606773-.29886094.1984508-.46851847.5417871-.4445998.8997375.02391868.3579504.2377482.6756616.56035569.8325852 4.8714948 2.1978153 10.0856116 3.5388105 15.413 3.964v1.2c.0071178.5059952.0921138 1.0078768.252 1.488-6.541-.7-11.833-2.123-15.72-4.264-1.56720052-.869025-2.53737022-2.5219919-2.532-4.314z" fill="#000"/></g></g></svg>