<svg id="Layer_1" enable-background="new 0 0 256 256" height="512" viewBox="0 0 256 256" width="512" xmlns="http://www.w3.org/2000/svg"><path clip-rule="evenodd" d="m205.594 19.058c-18.617-6.415-46.843-.232-58.92 16.85-12.076-17.082-40.304-23.264-58.92-16.85-23.686 8.161-36.31 33.139-33.978 57.296 1.906 19.747 12.838 39.437 26.825 56.754l9.22 10.642c4.814 5.21 9.89 10.222 15.172 14.998 5.483 4.958 11.186 9.665 17.038 14.085 6.378 4.817 15.875 12.969 24.49 13.159.01.005.019.01.04.01.037 0 .075-.006.113-.007.037.001.076.007.123.007.011 0 .021-.005.048-.017 8.597-.182 18.094-8.334 24.473-13.151 27.949-21.103 64.607-58.699 68.254-96.478 2.332-24.159-10.291-49.137-33.978-57.298z" fill="#f16c7a" fill-rule="evenodd"/><path d="m233.644 40.968c-6.368-11.243-15.898-19.31-27.561-23.328-17.817-6.14-46.011-1.075-59.409 15.77-13.396-16.846-41.589-21.911-59.409-15.77-11.663 4.019-21.194 12.085-27.562 23.328-5.977 10.554-8.613 23.172-7.42 35.53 1.742 18.041 10.876 37.404 27.151 57.552.521.645 1.466.744 2.109.225.645-.521.745-1.465.225-2.109-15.899-19.684-24.814-38.51-26.499-55.956-2.402-24.884 11.465-48.323 32.973-55.734 17.376-5.987 45.143-.766 57.206 16.298.281.398.737.634 1.225.634s.943-.236 1.225-.634c12.065-17.064 39.828-22.286 57.208-16.298 21.507 7.411 35.374 30.85 32.973 55.734-3.404 35.257-37.186 72.411-67.666 95.425-.726.549-1.492 1.14-2.292 1.758-5.983 4.616-14.178 10.939-21.308 11.09-.054.001-.108.006-.162.014-.001 0-.001 0-.002 0-.031-.003-.063-.005-.095-.006-7.148-.157-15.346-6.482-21.332-11.102-.799-.616-1.563-1.206-2.288-1.754-5.856-4.424-11.555-9.135-16.936-14-5.274-4.77-10.347-9.784-15.077-14.903-.561-.609-1.511-.646-2.12-.084-.608.562-.646 1.511-.083 2.119 4.791 5.186 9.927 10.264 15.268 15.093 5.447 4.925 11.213 9.692 17.14 14.17.717.541 1.473 1.125 2.264 1.735 6.279 4.845 14.864 11.471 22.959 11.722.069.009.141.014.212.014.008 0 .056-.003.097-.005.043.003.089.005.139.005.076 0 .157-.008.24-.022 8.071-.255 16.644-6.871 22.916-11.71.792-.611 1.55-1.196 2.269-1.738 9.539-7.203 27.877-22.271 43.518-42.259 15.131-19.336 23.652-37.933 25.326-55.272 1.192-12.36-1.444-24.978-7.422-35.532z" fill="#3a312a"/><path d="m195.266 100.203c-4.193-4.173-9.949-6.259-17.265-6.259-4.906 0-9.177.989-12.816 2.966-3.64 1.979-6.329 4.776-8.069 8.395s-2.61 7.466-2.61 11.54.87 7.92 2.61 11.54c1.74 3.619 4.43 6.418 8.069 8.395 3.638 1.978 7.91 2.966 12.816 2.966 7.316 0 13.072-2.086 17.265-6.259 4.192-4.173 6.289-9.72 6.289-16.642 0-6.921-2.098-12.469-6.289-16.642zm-12.756 27.44c-1.029 1.424-2.532 2.136-4.509 2.136-1.979 0-3.462-.712-4.45-2.136-1.583-2.215-2.373-5.774-2.373-10.679 0-4.904.79-8.464 2.373-10.679.988-1.463 2.471-2.196 4.45-2.196 1.977 0 3.48.712 4.509 2.136 1.582 2.255 2.373 5.835 2.373 10.739 0 4.905-.791 8.464-2.373 10.679zm-16.871-80.689-50.113 92.911h12.405l50.247-92.911zm-26.796 22.842c0-6.921-2.097-12.459-6.289-16.613-4.194-4.153-9.929-6.23-17.206-6.23-4.945 0-9.226.979-12.846 2.937-3.619 1.958-6.309 4.757-8.068 8.395-1.761 3.64-2.641 7.476-2.641 11.51 0 4.074.88 7.93 2.641 11.57 1.76 3.639 4.45 6.437 8.068 8.395 3.619 1.958 7.901 2.937 12.846 2.937 7.277 0 13.012-2.076 17.206-6.229 4.192-4.153 6.289-9.71 6.289-16.672zm-19.045 10.799c-.989 1.464-2.473 2.195-4.45 2.195-1.978 0-3.481-.731-4.51-2.195-1.582-2.215-2.373-5.775-2.373-10.68 0-4.904.791-8.464 2.373-10.679 1.028-1.424 2.532-2.136 4.51-2.136 1.977 0 3.461.712 4.45 2.136 1.581 2.254 2.373 5.814 2.373 10.679 0 4.905-.792 8.465-2.373 10.68z" fill="#87796f"/><path d="m196.324 99.14c-4.465-4.443-10.629-6.696-18.323-6.696-5.135 0-9.688 1.059-13.532 3.148-3.904 2.123-6.833 5.172-8.704 9.063-1.831 3.807-2.759 7.908-2.759 12.189s.928 8.383 2.759 12.19c1.872 3.893 4.801 6.941 8.704 9.063 3.844 2.09 8.396 3.149 13.532 3.149 7.693 0 13.858-2.253 18.323-6.696 4.466-4.447 6.731-10.404 6.731-17.706 0-7.3-2.265-13.257-6.731-17.704zm-2.117 33.284c-3.882 3.864-9.334 5.823-16.206 5.823-4.629 0-8.7-.937-12.1-2.785-3.339-1.814-5.84-4.414-7.434-7.727-1.634-3.398-2.462-7.063-2.462-10.89 0-3.828.828-7.492 2.462-10.89 1.593-3.312 4.094-5.912 7.434-7.728 3.399-1.848 7.471-2.784 12.1-2.784 6.872 0 12.325 1.959 16.206 5.822 3.88 3.863 5.848 9.105 5.848 15.579 0 6.476-1.968 11.718-5.848 15.58zm-16.206-29.835c-2.463 0-4.432.988-5.67 2.824-1.785 2.5-2.653 6.278-2.653 11.551 0 5.275.868 9.054 2.642 11.534 1.261 1.82 3.226 2.782 5.682 2.782 2.477 0 4.402-.928 5.729-2.764 1.785-2.499 2.652-6.277 2.652-11.551 0-5.27-.865-9.064-2.657-11.618-1.305-1.805-3.285-2.758-5.725-2.758zm3.293 24.176c-.747 1.033-1.793 1.515-3.293 1.515-1.489 0-2.512-.474-3.229-1.509-1.39-1.944-2.095-5.243-2.095-9.807 0-4.562.705-7.862 2.117-9.84.707-1.047 1.726-1.535 3.206-1.535 1.5 0 2.546.481 3.281 1.498 1.394 1.986 2.101 5.31 2.101 9.877.001 4.563-.703 7.863-2.088 9.801zm-60.275-45.299c1.785-2.5 2.652-6.279 2.652-11.551 0-5.229-.865-9.003-2.641-11.535-1.263-1.819-3.228-2.781-5.682-2.781-2.443 0-4.423.954-5.73 2.765-1.785 2.499-2.652 6.277-2.652 11.551s.868 9.053 2.646 11.542c1.302 1.853 3.286 2.833 5.737 2.833 2.461 0 4.43-.988 5.67-2.824zm-8.96-1.743c-1.389-1.945-2.094-5.245-2.094-9.808s.705-7.862 2.089-9.801c.747-1.033 1.793-1.515 3.294-1.515 1.488 0 2.511.474 3.222 1.498 1.394 1.987 2.101 5.291 2.101 9.818 0 4.562-.705 7.862-2.116 9.84-.707 1.046-1.726 1.534-3.207 1.534-1.493.001-2.536-.494-3.289-1.566zm67.407-33.537c-.271-.454-.76-.732-1.288-.732h-12.538c-.552 0-1.059.303-1.32.788l-50.114 92.911c-.25.465-.238 1.027.032 1.48.271.454.76.731 1.288.731h12.405c.551 0 1.058-.302 1.319-.786l50.247-92.912c.251-.463.239-1.026-.031-1.48zm-52.429 92.179h-8.997l48.496-89.911h9.126zm6.572-50.831c4.468-4.426 6.733-10.394 6.733-17.737 0-7.304-2.266-13.252-6.733-17.678-4.465-4.422-10.609-6.664-18.261-6.664-5.173 0-9.735 1.049-13.56 3.118-3.885 2.102-6.813 5.151-8.705 9.061-1.852 3.828-2.791 7.92-2.791 12.164 0 4.284.939 8.396 2.79 12.222 1.891 3.911 4.82 6.959 8.706 9.062 3.824 2.068 8.386 3.117 13.559 3.117 7.653-.001 13.797-2.243 18.262-6.665zm-37.825-6.822c-1.653-3.416-2.491-7.088-2.491-10.916 0-3.788.838-7.44 2.491-10.857 1.611-3.333 4.112-5.933 7.432-7.729 3.381-1.829 7.463-2.756 12.132-2.756 6.833 0 12.267 1.95 16.15 5.796 3.878 3.841 5.845 9.072 5.845 15.546 0 6.513-1.967 11.764-5.845 15.606-3.883 3.846-9.316 5.795-16.15 5.795-4.669 0-8.75-.927-12.132-2.756-3.32-1.795-5.82-4.396-7.432-7.729z" fill="#3a312a"/><path d="m47.946 114.256c-.974 11.564-13.024 13.39-13.024 13.39 10.347.487 12.925 14.059 12.925 14.059.221-9.677 13.321-14.202 13.321-14.202-9.813-.587-13.222-13.247-13.222-13.247z" fill="#d6df58"/><path d="m61.258 126.005c-8.605-.515-11.832-12.024-11.864-12.141-.19-.702-.851-1.162-1.583-1.102-.725.066-1.298.642-1.359 1.367-.86 10.215-11.313 11.964-11.754 12.033-.763.115-1.313.79-1.273 1.561.04.77.657 1.385 1.428 1.421 9.028.425 11.499 12.718 11.522 12.843.137.711.759 1.217 1.472 1.217.042 0 .084-.002.126-.005.764-.064 1.357-.693 1.375-1.46.194-8.509 12.191-12.777 12.313-12.819.675-.235 1.092-.914.994-1.623-.1-.708-.683-1.249-1.397-1.292zm-13.566 10.347c-1.357-3.131-3.709-6.907-7.587-8.877 2.931-1.405 6.409-3.913 8.202-8.272 1.551 3.071 4.2 6.88 8.333 8.722-3.007 1.639-6.922 4.405-8.948 8.427z" fill="#3a312a"/><path d="m26.248 131.237c-.689 8.179-9.212 9.471-9.212 9.471 7.318.344 9.142 9.944 9.142 9.944.156-6.844 9.422-10.045 9.422-10.045-6.942-.416-9.352-9.37-9.352-9.37z" fill="#d6df58"/><path d="m35.689 139.109c-5.766-.345-7.972-8.186-7.994-8.265-.19-.702-.856-1.171-1.582-1.102-.726.065-1.299.643-1.36 1.368-.579 6.87-7.646 8.065-7.942 8.112-.763.116-1.313.791-1.273 1.561.04.771.657 1.385 1.427 1.421 6.036.284 7.724 8.645 7.739 8.727.135.712.759 1.22 1.472 1.22.042 0 .083-.002.125-.005.765-.063 1.358-.693 1.376-1.461.13-5.708 8.332-8.633 8.413-8.661.677-.234 1.094-.913.996-1.622s-.682-1.251-1.397-1.293zm-9.585 6.794c-.924-1.885-2.34-3.947-4.447-5.279 1.855-1.041 3.697-2.63 4.87-4.916 1.057 1.874 2.654 3.954 4.941 5.224-1.848 1.1-3.987 2.74-5.364 4.971z" fill="#3a312a"/><path d="m26.21 104.58c-.657 8.182-9.175 9.507-9.175 9.507 7.319.316 9.181 9.908 9.181 9.908.129-6.845 9.383-10.082 9.383-10.082-6.944-.389-9.389-9.333-9.389-9.333z" fill="#d6df58"/><path d="m35.682 112.415c-5.767-.323-8.004-8.154-8.026-8.233-.193-.701-.861-1.17-1.586-1.096-.725.068-1.297.647-1.355 1.374-.552 6.873-7.615 8.097-7.911 8.145-.762.119-1.31.796-1.267 1.566s.663 1.382 1.433 1.415c6.036.261 7.757 8.614 7.773 8.695.138.71.76 1.214 1.471 1.214.043 0 .087-.002.131-.005.765-.066 1.356-.699 1.37-1.466.108-5.71 8.298-8.666 8.378-8.694.676-.236 1.09-.917.99-1.626-.1-.71-.687-1.249-1.401-1.289zm-9.558 6.832c-.932-1.882-2.356-3.938-4.468-5.262 1.852-1.048 3.686-2.644 4.851-4.936 1.065 1.87 2.67 3.944 4.962 5.205-1.846 1.108-3.978 2.755-5.345 4.993z" fill="#3a312a"/><path d="m232.084 155.543c-1.67-.08-3.37.28-4.93 1.09l-33.56 17.48h-53.14c-11.58 0-22.92 3.27-32.72 9.44l-7.48 4.7c-2.86 1.8-6.18 2.76-9.57 2.76h-.95v7.87c.006 0 .01-.001.016-.001v14.722c-.006 0-.01-.001-.016-.001v9.02l71.25-2.19c6.11-.4 11.99-2.45 17.02-5.95l59.22-45.53c1.94-1.35 2.57-3.24 2.62-5.06.11-4.35-3.41-8.16-7.76-8.35z" fill="#fce8cb"/><path d="m232.156 154.045c-1.959-.101-3.929.34-5.696 1.258l-33.233 17.311h-52.772c-11.88 0-23.471 3.344-33.518 9.669l-7.481 4.701c-2.63 1.655-5.663 2.53-8.771 2.53h-.95c-.829 0-1.5.672-1.5 1.5v7.869c0 .828.688 1.5 1.516 1.5s1.492-.672 1.492-1.5c0-.053-.003-.104-.008-.155v-6.222c3.481-.098 6.864-1.124 9.817-2.982l7.482-4.701c9.569-6.024 20.606-9.209 31.921-9.209h53.14c.241 0 .478-.059.693-.17l33.557-17.479c1.295-.672 2.725-1 4.175-.922 3.519.153 6.415 3.274 6.326 6.811-.047 1.711-.694 2.977-2.035 3.911l-59.162 45.488c-4.795 3.336-10.418 5.302-16.21 5.683l-69.704 2.142v-7.251c.011-.072.016-.146.016-.221 0-.802-.629-1.457-1.421-1.498-.032-.002-.065-.003-.095-.003-.829 0-1.5.672-1.5 1.5v9.02c0 .406.164.794.456 1.077.28.271.655.423 1.044.423.015 0 .031 0 .046-.001l71.301-2.191c6.389-.419 12.537-2.568 17.837-6.258l59.162-45.488c2.063-1.435 3.19-3.596 3.264-6.253.129-5.138-4.081-9.665-9.189-9.889z" fill="#3a312a"/><path d="m195.092 174.892c-.315-.766-1.188-1.132-1.957-.818-.767.314-1.133 1.19-.818 1.957 1.16 2.828-.496 6.243-2.731 8.154-2.611 2.232-6.239 3.314-9.44 4.27-7.231 2.158-13.786 3.487-20.727 4.896-6.704 1.359-13.637 2.765-22.189 5.071-.8.216-1.273 1.039-1.058 1.839.181.669.786 1.109 1.447 1.109.129 0 .261-.017.392-.052 8.461-2.281 15.346-3.678 22.004-5.028 7.01-1.421 13.63-2.764 20.988-4.96 3.486-1.04 7.439-2.22 10.532-4.865 2.961-2.532 5.337-7.234 3.557-11.573z" fill="#3a312a"/><path d="m44.846 175.094h-14.192-14.5v64.398h47.25v-64.398z" fill="#8ac6dd"/><path d="m63.404 173.595h-18.558c-.829 0-1.5.672-1.5 1.5s.671 1.5 1.5 1.5h17.058v61.397h-44.25v-61.397h12.999c.829 0 1.5-.672 1.5-1.5s-.671-1.5-1.5-1.5h-14.499c-.829 0-1.5.672-1.5 1.5v64.397c0 .828.671 1.5 1.5 1.5h47.25c.829 0 1.5-.672 1.5-1.5v-64.397c0-.828-.672-1.5-1.5-1.5z" fill="#3a312a"/><path d="m81.746 175.094h-18.342v64.397h18.342c4.413 0 7.991-3.578 7.991-7.991v-17.897-14.721-15.797c0-4.413-3.578-7.991-7.991-7.991z" fill="#87796f"/><path d="m89.737 200.383c.829 0 1.5-.672 1.5-1.5v-15.797c0-5.233-4.258-9.491-9.491-9.491h-18.342c-.829 0-1.5.672-1.5 1.5v64.397c0 .828.671 1.5 1.5 1.5h18.342c5.233 0 9.491-4.258 9.491-9.491v-17.897c0-.828-.671-1.5-1.5-1.5s-1.5.672-1.5 1.5v17.897c0 3.579-2.912 6.491-6.491 6.491h-16.842v-61.397h16.842c3.579 0 6.491 2.912 6.491 6.491v15.797c0 .828.672 1.5 1.5 1.5z" fill="#3a312a"/><path d="m76.57 220.108c-3.329 0-6.028 2.699-6.028 6.028s2.699 6.028 6.028 6.028 6.028-2.698 6.028-6.028-2.699-6.028-6.028-6.028z" fill="#d7e057"/><path d="m76.57 218.608c-4.151 0-7.528 3.377-7.528 7.527 0 4.151 3.377 7.528 7.528 7.528s7.528-3.377 7.528-7.528c0-4.15-3.377-7.527-7.528-7.527zm0 12.056c-2.497 0-4.528-2.031-4.528-4.528 0-2.496 2.031-4.527 4.528-4.527s4.528 2.031 4.528 4.527c0 2.497-2.031 4.528-4.528 4.528z" fill="#3a312a"/><path d="m232.024 157.043c-1.45-.07-2.9.25-4.18.92l-4.22 2.2c.69 1.08 1.08 2.35 1.05 3.69-.04 1.71-.69 2.98-2.03 3.91l-59.17 45.49c-7.07 4.959-16.561 5.97-16.545 6.11l14.015-.43c5.78-.37 11.4-2.34 16.2-5.68l59.17-45.49c1.34-.93 1.98-2.2 2.03-3.91.09-3.54-2.8-6.66-6.32-6.81z" fill="#decaad"/><path d="m205.11 20.48c-6.97-2.4-15.6-3-24.22-1.76 2.54.4 4.97.98 7.22 1.76 21.5 7.41 35.37 30.85 32.97 55.73-1.45 15.03-8.43 30.41-18.31 44.89-.72 5.39-2.88 9.9-6.45 13.45-2.27 2.26-4.97 3.95-8.1 5.06-10.81 12.16-23.05 23.14-34.81 32.02-.41.32-.84.65-1.28.98h17c.44-.33.87-.66 1.28-.98 30.48-23.01 64.26-60.16 67.67-95.42 2.4-24.88-11.47-48.32-32.97-55.73z" fill="#d34e5c"/></svg>