<svg id="Capa_1" enable-background="new 0 0 512 512" height="512" viewBox="0 0 512 512" width="512" xmlns="http://www.w3.org/2000/svg"><g><g><path d="m256.017 504.5 54.59-18.395c81.365-27.417 142.203-95.764 160.006-179.759 7.036-33.197 7.036-67.5 0-100.697l-28.725-135.522c-121.22 0-185.871-62.631-185.871-62.631s-64.651 62.631-185.871 62.631l-28.725 135.522c-7.036 33.197-7.036 67.5 0 100.697 17.803 83.994 78.641 152.342 160.006 179.759z" fill="#ffe07d"/></g><g><path d="m470.613 205.649-15.739-74.257c-6.051 54.191-27.935 110.548-65.872 160.86-79.174 105.002-202.883 150.036-298.855 116.42 28.525 35.274 66.84 62.459 111.279 77.433l54.59 18.395 54.59-18.395c81.365-27.417 142.203-95.764 160.006-179.759 7.038-33.196 7.038-67.5.001-100.697z" fill="#ffd064"/></g><g><path d="m218.845 434.412c-30.954-10.43-58.794-28.84-80.511-53.238s-36.777-54.184-43.549-86.138c-5.491-25.904-5.491-52.172 0-78.075l20.105-94.856c41.969-4.861 82.137-16.549 118.044-34.503 8.591-4.295 16.286-8.611 23.083-12.75 6.797 4.14 14.492 8.455 23.083 12.75 35.907 17.954 76.076 29.642 118.044 34.503l20.106 94.855c5.491 25.904 5.491 52.172 0 78.075-6.773 31.955-21.832 61.741-43.55 86.139-21.717 24.398-49.558 42.807-80.511 53.238l-37.172 12.526z" fill="#ecf4ff"/></g><g><path d="m421.368 255.997c-8.458 15.843-18.323 31.37-29.624 46.358-51.95 68.896-123.073 111.974-192.953 123.958 6.514 3.069 13.202 5.791 20.054 8.1l37.172 12.526 37.172-12.526c30.953-10.43 58.794-28.84 80.511-53.238 21.718-24.398 36.777-54.185 43.55-86.139 2.745-12.953 4.118-25.996 4.118-39.039z" fill="#ddeafb"/></g><g><path d="m353.849 229.588h-66.526v-66.526h-62.612v66.526h-66.526v62.612h66.526v66.526h62.612v-66.526h66.526z" fill="#c8ea73"/></g><g><path d="m109.913 181.752c.859-4.052-1.73-8.033-5.782-8.892-4.051-.859-8.033 1.73-8.892 5.782l-7.79 36.76c-5.708 26.937-5.708 54.253 0 81.19 7.041 33.231 22.701 64.202 45.284 89.561 22.575 25.373 51.525 44.517 83.718 55.362l37.17 12.53c.777.262 1.586.393 2.396.393s1.618-.131 2.396-.393l37.17-12.529c32.193-10.849 61.141-29.989 83.716-55.351 22.586-25.372 38.245-56.346 45.286-89.573 5.707-26.937 5.707-54.253 0-81.19l-20.101-94.851c-.668-3.152-3.273-5.525-6.475-5.896-41.482-4.803-80.362-16.165-115.562-33.77-7.712-3.851-15.292-8.039-22.53-12.446-2.396-1.458-5.404-1.458-7.801 0-7.238 4.407-14.819 8.595-22.535 12.448-35.197 17.603-74.076 28.965-115.559 33.768-3.2.371-5.806 2.743-6.474 5.894l-5.06 23.861c-.859 4.052 1.729 8.034 5.781 8.893 4.058.859 8.034-1.729 8.893-5.781l3.95-18.625c41.218-5.341 79.939-16.969 115.175-34.592 6.711-3.352 13.33-6.948 19.729-10.718 6.399 3.77 13.017 7.365 19.726 10.716 35.238 17.624 73.964 29.252 115.178 34.594l18.991 89.614c5.27 24.874 5.27 50.098 0 74.971-6.502 30.681-20.961 59.281-41.817 82.709-20.845 23.419-47.576 41.092-77.303 51.11l-34.775 11.722-34.776-11.723c-29.727-10.015-56.457-27.692-77.304-51.121-20.853-23.417-35.312-52.014-41.814-82.697-5.271-24.874-5.271-50.098 0-74.971z"/><path d="m477.946 204.093-13.03-61.49c-.858-4.053-4.843-6.643-8.892-5.782-4.053.858-6.641 4.839-5.782 8.892l13.03 61.492c3.396 16.01 5.117 32.427 5.117 48.794s-1.722 32.784-5.117 48.796c-17.168 81.008-76.584 147.76-155.059 174.208l-52.196 17.584-52.195-17.584c-38.695-13.041-73.489-36.053-100.625-66.55-27.146-30.489-45.969-67.716-54.435-107.659-6.866-32.378-6.866-65.212 0-97.591l27.472-129.629c61.063-1.059 107.3-17.875 135.659-32.054 22.079-11.039 36.86-22.071 44.124-28.065 7.264 5.994 22.045 17.026 44.123 28.065 28.36 14.18 74.597 30.995 135.659 32.054l7.182 33.897c.858 4.053 4.839 6.638 8.892 5.783 4.052-.859 6.641-4.839 5.782-8.892l-8.43-39.79c-.734-3.466-3.794-5.946-7.337-5.946-60.834 0-106.685-16.436-134.437-30.223-30.13-14.969-46.068-30.15-46.216-30.294-2.902-2.812-7.518-2.81-10.429-.008-.157.152-16.094 15.333-46.224 30.302-27.752 13.788-73.603 30.223-134.437 30.223-3.543 0-6.603 2.479-7.337 5.945l-28.72 135.52c-7.303 34.442-7.303 69.37 0 103.812 9.005 42.489 29.029 82.091 57.904 114.521 28.864 32.441 65.877 56.92 107.039 70.793l54.59 18.39c.777.262 1.585.393 2.395.393s1.618-.131 2.395-.393l54.591-18.39c41.154-13.87 78.169-38.347 107.043-70.788 28.875-32.441 48.897-72.044 57.9-114.525 3.612-17.032 5.443-34.496 5.443-51.907s-1.83-34.874-5.442-51.904z"/><path d="m176.516 237.088c4.142 0 7.5-3.358 7.5-7.5s-3.358-7.5-7.5-7.5h-18.33c-4.142 0-7.5 3.358-7.5 7.5v62.611c0 4.142 3.358 7.5 7.5 7.5h59.02v59.03c0 4.142 3.358 7.5 7.5 7.5h62.62c4.143 0 7.5-3.358 7.5-7.5v-59.03h59.021c4.143 0 7.5-3.358 7.5-7.5v-62.611c0-4.142-3.357-7.5-7.5-7.5h-59.021v-59.02c0-4.142-3.357-7.5-7.5-7.5h-62.62c-4.142 0-7.5 3.358-7.5 7.5v59.02h-5.71c-4.142 0-7.5 3.358-7.5 7.5s3.358 7.5 7.5 7.5h13.21c4.142 0 7.5-3.358 7.5-7.5v-59.02h47.62v59.02c0 4.142 3.357 7.5 7.5 7.5h59.021v47.611h-59.021c-4.143 0-7.5 3.358-7.5 7.5v59.03h-47.62v-59.03c0-4.142-3.358-7.5-7.5-7.5h-59.02v-47.611z"/></g></g></svg>